<?xml version="1.0" encoding="UTF-8"?>
<svg xmlns="http://www.w3.org/2000/svg" xml:space="preserve" width="93.5249mm" height="92.6895mm" version="1.1" style="shape-rendering:geometricPrecision; text-rendering:geometricPrecision; image-rendering:optimizeQuality; fill-rule:evenodd; clip-rule:evenodd"
viewBox="0 0 11711.83 11607.21"
xmlns:xlink="http://www.w3.org/1999/xlink">
 <defs>
  <style type="text/css">
   <![CDATA[
    .fil0 {fill:#00426E}
    .fil2 {fill:red;fill-rule:nonzero}
    .fil1 {fill:white;fill-rule:nonzero}
   ]]>
  </style>
 </defs>
 <g id="!;>9_x0020_1">
  <metadata id="CorelCorpID_0Corel-Layer"/>
  <g id="_2046925251808">
   <rect class="fil0" y="-0.04" width="11711.82" height="11607.21" rx="2945.22" ry="3012.43"/>
   <g>
    <path class="fil1" d="M7637.5 2004.83l751.71 0 0 1153.18c-240,-115.08 -571.31,-344.17 -751.71,-528.34l0 -624.83z"/>
    <path class="fil2" d="M1720.3 3580c2285.09,-242.21 3270.04,-1249.1 4293.14,-2890.67 788.08,1783.39 1854.5,3164.87 4240.52,3457.89l0 492.09c-2033.27,-162.86 -3482.17,-1155.31 -4254.17,-2636.81 -833.77,1771.85 -2942.62,2639.21 -4279.49,2636.81l0 -1059.31z"/>
    <path class="fil1" d="M5051.79 4188.4l0 3927.65c0,955.99 282.12,1580.83 1381.98,1474.33 603.53,-58.44 1203.73,-456.43 1203.73,-1474.33l0 -3923.09c233.65,150.03 484.36,282.24 751.71,395.19l0 3764.99c0,1423.17 -1102.8,2090.19 -2305.89,2103.4 -1574.75,17.29 -2510.72,-571.96 -2510.72,-2103.4l0 -3218.05c520.61,-224.71 1036,-539.84 1479.19,-946.69z"/>
   </g>
  </g>
 </g>
</svg>
